<svg width="23" height="26" viewBox="0 0 23 26" fill="none" xmlns="http://www.w3.org/2000/svg">
<path id="Vector" d="M11.4182 2.80533C12.0175 1.99294 12.8095 1.41801 13.6889 1.15706C14.5682 0.896105 15.4931 0.961498 16.3406 1.34454C17.1881 1.72757 17.9179 2.41009 18.433 3.30128C18.9481 4.19247 19.224 5.25006 19.224 6.33333C19.224 7.41661 18.9481 8.4742 18.433 9.36539C17.9179 10.2566 17.1881 10.9391 16.3406 11.3221C15.4931 11.7052 14.5682 11.7706 13.6889 11.5096C12.8095 11.2487 12.0175 10.6737 11.4182 9.86133M14.7636 25H1.38184V23.6667C1.38184 21.5449 2.08677 19.5101 3.34155 18.0098C4.59634 16.5095 6.2982 15.6667 8.07273 15.6667C9.84727 15.6667 11.5491 16.5095 12.8039 18.0098C14.0587 19.5101 14.7636 21.5449 14.7636 23.6667V25ZM14.7636 25H21.4545V23.6667C21.4547 22.2623 21.1457 20.8826 20.5585 19.6663C19.9713 18.45 19.1267 17.4399 18.1095 16.7376C17.0923 16.0353 15.9384 15.6656 14.7639 15.6655C13.5893 15.6655 12.4354 16.0351 11.4182 16.7373M12.5333 6.33333C12.5333 7.74782 12.0634 9.10438 11.2269 10.1046C10.3903 11.1048 9.25576 11.6667 8.07273 11.6667C6.88971 11.6667 5.75514 11.1048 4.91861 10.1046C4.08209 9.10438 3.61214 7.74782 3.61214 6.33333C3.61214 4.91885 4.08209 3.56229 4.91861 2.5621C5.75514 1.5619 6.88971 1 8.07273 1C9.25576 1 10.3903 1.5619 11.2269 2.5621C12.0634 3.56229 12.5333 4.91885 12.5333 6.33333Z" stroke="#9CA3AF" stroke-width="2" stroke-linecap="round" stroke-linejoin="round"/>
</svg>
