<svg width="25" height="26" viewBox="0 0 25 26" fill="none" xmlns="http://www.w3.org/2000/svg">
<path id="Vector" d="M14.5091 22.1C13.8198 22.2559 13.1197 22.334 12.4182 22.3333C7.42454 22.3333 3.19812 18.4093 1.77631 13C2.1591 11.5441 2.74871 10.178 3.51929 8.96133M10.0518 10.172C10.6793 9.42179 11.5303 9.00033 12.4176 9.00033C13.305 9.00033 14.156 9.42179 14.7834 10.172C15.4109 10.9222 15.7634 11.9397 15.7634 13.0007C15.7634 14.0616 15.4109 15.0791 14.7834 15.8293M10.0518 10.172L14.7834 15.8293M10.0518 10.172L14.7823 15.8267M14.7834 15.8293L18.4534 20.216M10.0541 10.1733L6.38522 5.78667M6.38522 5.78667L2.38183 1M6.38522 5.78667C8.18324 4.39942 10.2783 3.66321 12.4182 3.66667C17.4118 3.66667 21.6382 7.59067 23.0601 13C22.275 15.9739 20.6451 18.5261 18.4523 20.2147M6.38522 5.78667L18.4523 20.2147M18.4523 20.2147L22.4545 25" stroke="#9CA3AF" stroke-width="2" stroke-linecap="round" stroke-linejoin="round"/>
</svg>
